<svg width="168" height="24" viewBox="0 0 168 24" fill="none" xmlns="http://www.w3.org/2000/svg">
<path d="M18 2H15C13.6739 2 12.4021 2.52678 11.4645 3.46447C10.5268 4.40215 10 5.67392 10 7V10H7V14H10V22H14V14H17L18 10H14V7C14 6.73478 14.1054 6.48043 14.2929 6.29289C14.4804 6.10536 14.7348 6 15 6H18V2Z" stroke="#94A3B8" stroke-width="2" stroke-linecap="round" stroke-linejoin="round"/>
<path d="M70 4C70 4 69.3 6.1 68 7.4C69.6 17.4 58.6 24.7 50 19C52.2 19.1 54.4 18.4 56 17C51 15.5 48.5 9.6 51 5C53.2 7.6 56.6 9.1 60 9C59.1 4.8 64 2.4 67 5.2C68.1 5.2 70 4 70 4Z" stroke="#94A3B8" stroke-width="2" stroke-linecap="round" stroke-linejoin="round"/>
<path d="M112 8C113.591 8 115.117 8.63214 116.243 9.75736C117.368 10.8826 118 12.4087 118 14V21H114V14C114 13.4696 113.789 12.9609 113.414 12.5858C113.039 12.2107 112.53 12 112 12C111.47 12 110.961 12.2107 110.586 12.5858C110.211 12.9609 110 13.4696 110 14V21H106V14C106 12.4087 106.632 10.8826 107.757 9.75736C108.883 8.63214 110.409 8 112 8Z" stroke="#94A3B8" stroke-width="2" stroke-linecap="round" stroke-linejoin="round"/>
<path d="M102 9H98V21H102V9Z" stroke="#94A3B8" stroke-width="2" stroke-linecap="round" stroke-linejoin="round"/>
<path d="M100 6C101.105 6 102 5.10457 102 4C102 2.89543 101.105 2 100 2C98.8954 2 98 2.89543 98 4C98 5.10457 98.8954 6 100 6Z" stroke="#94A3B8" stroke-width="2" stroke-linecap="round" stroke-linejoin="round"/>
<path d="M161.5 6.5H161.51M151 2H161C163.761 2 166 4.23858 166 7V17C166 19.7614 163.761 22 161 22H151C148.239 22 146 19.7614 146 17V7C146 4.23858 148.239 2 151 2ZM160 11.37C160.123 12.2022 159.981 13.0522 159.594 13.799C159.206 14.5458 158.593 15.1514 157.842 15.5297C157.09 15.9079 156.238 16.0396 155.408 15.9059C154.577 15.7723 153.81 15.3801 153.215 14.7852C152.62 14.1902 152.228 13.4229 152.094 12.5922C151.96 11.7616 152.092 10.9099 152.47 10.1584C152.849 9.40685 153.454 8.79374 154.201 8.40624C154.948 8.01874 155.798 7.87659 156.63 8C157.479 8.12588 158.265 8.52146 158.872 9.12831C159.479 9.73515 159.874 10.5211 160 11.37Z" stroke="#94A3B8" stroke-width="2" stroke-linecap="round" stroke-linejoin="round"/>
</svg>
