<svg width="99" height="19" viewBox="0 0 99 19" fill="none" xmlns="http://www.w3.org/2000/svg">
<path d="M0.632 18V1.056H3.272L4.4 4.44V18H0.632ZM12.32 18L2.336 5.208L3.272 1.056L13.256 13.848L12.32 18ZM12.32 18L11.312 14.616V1.056H15.08V18H12.32ZM23.1988 18.264C22.1268 18.264 21.1748 18.048 20.3428 17.616C19.5268 17.168 18.8868 16.56 18.4228 15.792C17.9588 15.008 17.7268 14.112 17.7268 13.104V6.336H21.3988V13.056C21.3988 13.456 21.4628 13.8 21.5908 14.088C21.7348 14.376 21.9428 14.6 22.2148 14.76C22.4868 14.92 22.8148 15 23.1988 15C23.7428 15 24.1748 14.832 24.4948 14.496C24.8148 14.144 24.9748 13.664 24.9748 13.056V6.336H28.6468V13.08C28.6468 14.104 28.4148 15.008 27.9508 15.792C27.4868 16.56 26.8468 17.168 26.0308 17.616C25.2148 18.048 24.2708 18.264 23.1988 18.264ZM30.9523 18V0.576H34.6243V18H30.9523ZM37.2101 18V0.576H40.8821V18H37.2101ZM46.6839 18V15.072H50.6679C51.4039 15.072 51.9799 14.856 52.3959 14.424C52.8119 13.992 53.0199 13.464 53.0199 12.84C53.0199 12.408 52.9239 12.024 52.7319 11.688C52.5399 11.352 52.2679 11.088 51.9159 10.896C51.5799 10.704 51.1639 10.608 50.6679 10.608H46.6839V7.752H50.3559C50.9799 7.752 51.4839 7.6 51.8679 7.296C52.2519 6.976 52.4439 6.496 52.4439 5.856C52.4439 5.232 52.2519 4.768 51.8679 4.464C51.4839 4.144 50.9799 3.984 50.3559 3.984H46.6839V1.056H51.0759C52.1639 1.056 53.0839 1.256 53.8359 1.656C54.6039 2.056 55.1879 2.592 55.5879 3.264C55.9879 3.936 56.1879 4.68 56.1879 5.496C56.1879 6.536 55.8519 7.416 55.1799 8.136C54.5079 8.856 53.5159 9.352 52.2039 9.624L52.2999 8.352C53.7239 8.624 54.8199 9.176 55.5879 10.008C56.3719 10.84 56.7639 11.864 56.7639 13.08C56.7639 14.008 56.5319 14.848 56.0679 15.6C55.6199 16.336 54.9639 16.92 54.0999 17.352C53.2519 17.784 52.2279 18 51.0279 18H46.6839ZM43.8039 18V1.056H47.5239V18H43.8039ZM63.7149 18.24C62.6429 18.24 61.6829 17.976 60.8349 17.448C60.0029 16.92 59.3389 16.2 58.8429 15.288C58.3629 14.376 58.1229 13.336 58.1229 12.168C58.1229 11 58.3629 9.96 58.8429 9.048C59.3389 8.136 60.0029 7.416 60.8349 6.888C61.6829 6.36 62.6429 6.096 63.7149 6.096C64.4989 6.096 65.2029 6.248 65.8269 6.552C66.4669 6.856 66.9869 7.28 67.3869 7.824C67.7869 8.352 68.0109 8.96 68.0589 9.648V14.688C68.0109 15.376 67.7869 15.992 67.3869 16.536C67.0029 17.064 66.4909 17.48 65.8509 17.784C65.2109 18.088 64.4989 18.24 63.7149 18.24ZM64.4589 14.928C65.2429 14.928 65.8749 14.672 66.3549 14.16C66.8349 13.632 67.0749 12.968 67.0749 12.168C67.0749 11.624 66.9629 11.144 66.7389 10.728C66.5309 10.312 66.2269 9.992 65.8269 9.768C65.4429 9.528 64.9949 9.408 64.4829 9.408C63.9709 9.408 63.5149 9.528 63.1149 9.768C62.7309 9.992 62.4189 10.312 62.1789 10.728C61.9549 11.144 61.8429 11.624 61.8429 12.168C61.8429 12.696 61.9549 13.168 62.1789 13.584C62.4029 14 62.7149 14.328 63.1149 14.568C63.5149 14.808 63.9629 14.928 64.4589 14.928ZM66.9309 18V14.856L67.4829 12.024L66.9309 9.192V6.336H70.5309V18H66.9309ZM80.8203 18V11.352C80.8203 10.744 80.6283 10.256 80.2443 9.888C79.8763 9.504 79.4043 9.312 78.8283 9.312C78.4283 9.312 78.0763 9.4 77.7723 9.576C77.4683 9.736 77.2283 9.976 77.0523 10.296C76.8763 10.6 76.7883 10.952 76.7883 11.352L75.3723 10.656C75.3723 9.744 75.5723 8.944 75.9723 8.256C76.3723 7.568 76.9243 7.04 77.6283 6.672C78.3483 6.288 79.1563 6.096 80.0523 6.096C80.9163 6.096 81.6763 6.304 82.3323 6.72C83.0043 7.12 83.5323 7.656 83.9163 8.328C84.3003 9 84.4923 9.736 84.4923 10.536V18H80.8203ZM73.1163 18V6.336H76.7883V18H73.1163ZM94.3147 18L90.2347 11.952L94.2907 6.336H98.3947L93.4987 12.648L93.6187 11.136L98.6347 18H94.3147ZM86.8507 18V0.576H90.5227V18H86.8507Z" fill="#6729FF"/>
</svg>
